<?xml version="1.0" encoding="utf-8"?>
<!-- Generator: Adobe Illustrator 18.1.0, SVG Export Plug-In . SVG Version: 6.00 Build 0)  -->
<svg version="1.1" xmlns="http://www.w3.org/2000/svg" xmlns:xlink="http://www.w3.org/1999/xlink" x="0px" y="0px" width="333.2px"
	 height="333.3px" viewBox="0 0 333.2 333.3" style="enable-background:new 0 0 333.2 333.3;" xml:space="preserve">
<style type="text/css">
	.st0{fill:#00ABDF;}
	.st1{fill:#88CBDF;}
	.st2{opacity:0.3;fill:#00ABDF;}
	.st3{fill:#455560;}
	.st4{fill:#3C4A54;}
	.st5{fill:#00A94F;}
	.st6{fill:#00B259;}
	.st7{fill:#F7941E;}
	.st8{fill:#FBB040;}
	.st9{fill:#39B54A;}
	.st10{fill:#8DC63F;}
	.st11{opacity:0.5;fill:#00A94F;}
	.st12{opacity:0.5;fill:#F7941E;}
	.st13{fill:#0090BB;}
	.st14{opacity:0.35;fill:#3C4A54;}
	.st15{opacity:0.2;fill:#152128;}
	.st16{fill:none;stroke:#BE1E2D;stroke-miterlimit:10;}
	.st17{fill:#152128;}
	.st18{fill:#FFDE17;}
	.st19{fill:#F1F2F2;}
	.st20{fill:#FFFFFF;}
	.st21{fill:none;stroke:#152128;stroke-width:7.1826;stroke-linecap:round;stroke-linejoin:round;stroke-miterlimit:10;}
	.st22{opacity:0.3;fill:url(#SVGID_1_);}
	.st23{fill:#FFF200;}
	.st24{fill:none;stroke:#88CBDF;stroke-miterlimit:10;}
	.st25{fill:#603913;}
	.st26{fill:#3C2415;}
	.st27{fill:none;stroke:#A3DCE6;stroke-miterlimit:10;}
	.st28{fill:#A3DCE6;}
	.st29{fill:#7ED0E0;}
	.st30{fill:none;stroke:#000000;stroke-width:2.4772;stroke-linecap:round;stroke-linejoin:round;stroke-miterlimit:10;}
	.st31{fill:#C3996C;}
	.st32{fill:#A97D51;}
	.st33{fill:#D4B69C;}
	.st34{fill:none;stroke:#9B8579;stroke-width:0.817;stroke-miterlimit:10;}
	.st35{fill:none;stroke:#A97D51;stroke-width:0.817;stroke-miterlimit:10;}
	.st36{fill:#F2F2F2;}
	.st37{fill:#EEEBDE;}
	.st38{opacity:0.4;fill:#F2F2F2;}
	.st39{fill:#E6E7E8;}
	.st40{opacity:5.000000e-002;fill:#FFFFFF;}
	.st41{fill:none;stroke:#ED1C24;stroke-miterlimit:10;}
	.st42{fill:#0F2138;}
	.st43{opacity:5.000000e-002;fill:#3C4A54;}
	.st44{fill:#DCDBDB;}
	.st45{fill:#BE1E2D;}
	.st46{fill:#C6A58C;}
	.st47{fill:#754C29;}
	.st48{fill:#A97C50;}
	.st49{fill:#414042;}
	.st50{fill:#D1D3D4;}
	.st51{fill:#6FBEC4;}
	.st52{fill:none;stroke:#00ABDF;stroke-miterlimit:10;}
	.st53{opacity:0.2;fill:#010101;}
	.st54{opacity:0.5;fill:#152128;}
	.st55{opacity:0.5;fill:#455560;}
	.st56{fill:none;stroke:#6A737B;stroke-width:3.0128;stroke-linecap:round;stroke-linejoin:round;stroke-miterlimit:10;}
	.st57{opacity:0.2;fill:#FFFFFF;}
	.st58{fill:#C2B59B;}
	.st59{fill:#9B8579;}
	.st60{fill-rule:evenodd;clip-rule:evenodd;fill:#0090BB;}
	.st61{fill-rule:evenodd;clip-rule:evenodd;fill:#C1A28E;}
	.st62{fill-rule:evenodd;clip-rule:evenodd;fill:#D4B69C;}
	.st63{fill-rule:evenodd;clip-rule:evenodd;fill:#455560;}
	.st64{fill-rule:evenodd;clip-rule:evenodd;fill:#3C4A54;}
	.st65{fill-rule:evenodd;clip-rule:evenodd;fill:#00ABDF;}
	.st66{fill-rule:evenodd;clip-rule:evenodd;fill:url(#SVGID_2_);}
	.st67{fill-rule:evenodd;clip-rule:evenodd;fill:url(#SVGID_3_);}
	.st68{fill:#CBEAED;}
	.st69{fill:#BCBEC0;}
	.st70{fill:#A7A9AC;}
	.st71{fill:#0B9A9E;}
	.st72{fill:none;}
	.st73{fill:#6D6E71;}
	.st74{fill:#58595B;}
	.st75{fill:#8B96A9;}
	.st76{fill:#595F6A;}
	.st77{fill:#6A737B;}
	.st78{fill:#E6E7E8;stroke:#3C4A54;stroke-miterlimit:10;}
	.st79{fill:#98C7D3;}
	.st80{fill:#BC2025;}
	.st81{fill:#1A1A1A;}
	.st82{fill:#365EAB;}
	.st83{fill:#0E9647;}
	.st84{fill:#B41F24;}
	.st85{fill:#B5A58A;}
	.st86{fill:#262C33;}
	.st87{fill:#53BEE3;}
	.st88{fill:#231F20;}
	.st89{fill:#939598;}
	.st90{fill:#E7E7E7;}
	.st91{fill:#47515D;}
	.st92{fill:#CBEAED;stroke:#000000;stroke-width:1.0766;stroke-miterlimit:10;}
	.st93{opacity:0.5;fill:#FFFFFF;}
	.st94{fill:url(#SVGID_4_);}
	.st95{opacity:0.15;fill:#FFFFFF;}
	.st96{fill:none;stroke:#000000;stroke-width:1.0766;stroke-miterlimit:10;}
	.st97{fill:url(#SVGID_5_);}
	.st98{opacity:0.6;fill:#FFFFFF;}
	.st99{opacity:0.75;fill:#FFFFFF;}
	.st100{fill:none;stroke:#BE1E2D;stroke-width:1.9512;stroke-miterlimit:10;}
	.st101{opacity:0.15;fill:#152128;}
	.st102{fill:none;stroke:#BE1E2D;stroke-width:2.0412;stroke-miterlimit:10;}
	.st103{fill:none;stroke:#BE1E2D;stroke-width:1.9366;stroke-miterlimit:10;}
	.st104{fill:none;stroke:#000000;stroke-miterlimit:10;}
	.st105{fill:#CE2D41;}
	.st106{fill:#262262;}
	.st107{fill:#2B3990;}
	.st108{fill:#808285;}
	.st109{fill:#FFFFFF;stroke:#152128;stroke-width:5;stroke-linecap:round;stroke-linejoin:round;stroke-miterlimit:10;}
	.st110{opacity:0.4;fill:#00ABDF;}
	.st111{opacity:0.2;}
	.st112{fill:none;stroke:#152128;stroke-miterlimit:10;}
	.st113{fill:none;stroke:#152128;stroke-width:5;stroke-linecap:round;stroke-linejoin:round;stroke-miterlimit:10;}
	.st114{fill:#F1F2F2;stroke:#152128;stroke-width:5;stroke-linecap:round;stroke-linejoin:round;stroke-miterlimit:10;}
	.st115{fill:none;stroke:#00ABDF;stroke-width:4;stroke-linecap:round;stroke-linejoin:round;stroke-miterlimit:10;}
	.st116{fill:none;stroke:#00ABDF;stroke-width:5;stroke-miterlimit:10;}
	.st117{fill:#999999;}
	.st118{fill:#ECECD9;}
	.st119{fill:#2C658B;}
	.st120{fill:#CBEAED;stroke:#000000;stroke-width:2.4757;stroke-miterlimit:10;}
	.st121{fill:url(#SVGID_6_);}
	.st122{fill:none;stroke:#000000;stroke-width:2.4757;stroke-miterlimit:10;}
	.st123{fill:url(#SVGID_7_);}
	.st124{opacity:0.1;fill:#FFFFFF;}
	.st125{fill:url(#SVGID_8_);}
	.st126{fill:#E6E7E8;stroke:#3C4A54;stroke-width:0.2823;stroke-miterlimit:10;}
	.st127{fill:url(#SVGID_9_);}
</style>
<g id="compliance">
</g>
<g id="reporting">
</g>
<g id="environmentally_friendly">
</g>
<g id="technology">
</g>
<g id="customer_first">
	<path class="st0" d="M313,173.2c0.1-2.2,0.2-4.4,0.2-6.6c0-21.1-4.5-41.2-12.5-59.4C277.9,55.9,226.4,20,166.5,20
		C86.7,20,21.8,83.8,19.9,163.2C117.6,157.8,215.5,177.5,313,173.2z"/>
	<path class="st13" d="M20.1,173.2c1.3,28.6,10.7,55.1,26.1,77.1c26.5,38.1,70.5,63,120.4,63c75.4,0,137.6-57,145.7-130.2
		C215,186.9,117.5,167.8,20.1,173.2z"/>
	<path class="st31" d="M103.1,139.9c1.5,0.2,47.8,1.8,59.2,2.9c11.4,1.1,65.4,69.7,65.4,69.7l0.9,9.7c0,0,3.7,4.5,1.4,11.3
		c-1.4,4.1-5.2,8.4-13.4,7.4c0,0,1.4,15.8-19.9,10.7c0,0-6.2,13.3-22.1,5.1c0,0-5.2,13.4-19.2,5.2l-72.3-57.6c0,0,2.7-51.7,3.5-52.3
		C87.4,151.5,103.1,139.9,103.1,139.9z"/>
	<path class="st32" d="M229.9,224.9c0.3,1.8,0.8,4.6-0.1,7c-1.4,4.1-6.4,8.6-14.8,7.7c0,0,2,15.3-19.7,10.1c0,0,1.2,1,0.9,1.5
		c-1.6,2.6-9.5,11-23.4,3.7c0,0,1.2,1.2,0.9,1.9c-1.6,3-8.7,10.3-20.5,3.4l-0.2-0.1c0,0.1-0.1,0.2-0.1,0.2l2.3,1.8
		c14,8.3,19.2-5.2,19.2-5.2c15.8,8.3,22.1-5.1,22.1-5.1c21.3,5.1,19.9-10.7,19.9-10.7c8.2,0.9,12-3.4,13.4-7.4
		C231.2,229.9,230.7,226.8,229.9,224.9z"/>
	<path class="st32" d="M134.3,187.1c0,0,13.3,4.5,22-9.3l3-3.7l19.1-7.3c0,0,0.2-9-3.8-8.4c-4,0.6-26.1,6.8-27.3,8.4
		C146.1,168.4,134.3,187.1,134.3,187.1z"/>
	<path class="st33" d="M213.6,148.9c0,0-25.7-8.1-32-10.9c0,0-14.1-3.7-26.1,5.5c0,0-7.9,5.2-12.8,5.1c0,0-6.7,0.4-8.6,8.4
		c-1.9,8-5.3,18.6-5.5,20.5c0,0-2.4,12.3,10.9,9.2c0,0,11.2-0.9,17-14.9c0,0,7.5-0.6,10.8-3.2l2.1-1.5c0,0,6.4,1.7,11.4,7.7
		c5.8,6.9,16.5,16.7,20,20c3.5,3.3,27.7,27.5,27.7,27.5s6.7-1.2,9.2-5C240.8,212.6,226.3,164.3,213.6,148.9L213.6,148.9z"/>
	<path class="st32" d="M98.4,166.7c0,0-13.7,33.6-7.4,40.4c6.2,6.8,26.5,23.4,26.5,23.4l4.2,11.2l-26.2-27.1l-10.7-9l-6.1-9.1
		L93.9,163L98.4,166.7z"/>
	<path class="st33" d="M105.8,209.1c0,0-6.2,0-10.4,5.5c-1.7,2.2-5.2,17.6,10.4,17c0,0,2.8,17.5,17.4,13.1c0,0,2.3,11,15,9.4
		c0,0,3,13.1,17.2,7.7c0,0,6.5-5.5,2.8-14.7c0,0-2.9-7.8-9-6.9c0,0,3.7-7-2.4-12.3c0,0-6.7-4.8-11.9,2.3c0,0,0.2-5.8-3.6-9.8
		c0,0-6.1-6-13-0.7C118.3,219.6,120.7,207.7,105.8,209.1z"/>
	<path class="st20" d="M229.3,142.7c-2.1,0.4-15.7,6.2-15.7,6.2s15.1,54.3,24.6,74.6c0.4,0.9,2.5,3.5,8.2,2.1c5.8-1.5,32.9-9,32.9-9
		l-17.2-73.9H229.3z"/>
	<path class="st19" d="M248.6,169.4l-26,10.3c0,0,6,23.5,15.6,43.8c0.4,0.9,2.5,3.5,8.2,2.1c5.8-1.5,32.9-9,32.9-9l-17.2-73.9
		L248.6,169.4z"/>
	<path class="st3" d="M76.8,126.4l27,7c0,0,5,1,0.8,14.6c-4.2,13.6-19.8,61.2-22.7,63c-2.9,1.8-13.2,1.5-16.5,1
		c-3.2-0.5-26.2-2.9-26.2-2.9L76.8,126.4z"/>
	<path class="st4" d="M68.5,158.4l29.9,8.4c0,0-13.6,42.4-16.5,44.3c-2.9,1.8-13.2,1.5-16.5,1c-3.2-0.5-26.2-2.9-26.2-2.9
		L68.5,158.4z"/>
	<path class="st34" d="M138.2,254.1c0,0,5.7-6.7,11-13.9"/>
	<path class="st34" d="M124,244c0,0,5-5.8,10.3-13"/>
	<path class="st34" d="M106.7,231.1c3.8-3.3,5.9-4.8,10.7-10.8"/>
	<path class="st34" d="M156.7,170.5c0,0,0.6-0.8,0.2-7.5"/>
	<path class="st34" d="M170.2,166.3c0,0,7.4-5.7,8.2-9.6"/>
	<path class="st34" d="M216.6,194.1c-0.6-0.2-8.3,3.2-17.9-2.3"/>
	<line class="st35" x1="216.5" y1="240.9" x2="183.3" y2="210.5"/>
	<path class="st35" d="M196.7,251.6c-0.5-1.2-26.5-29.5-26.5-29.5"/>
	<line class="st35" x1="174.6" y1="256.7" x2="156.4" y2="232.9"/>
	<path class="st15" d="M180.2,44.3c49.9,0,93.9,24.9,120.4,63C277.9,55.9,226.4,20,166.5,20c-81,0-146.6,65.7-146.6,146.6
		c0,31.1,9.7,59.9,26.2,83.7c-8-18.1-12.5-38.2-12.5-59.4C33.6,110,99.2,44.3,180.2,44.3z"/>
	<path class="st3" d="M225.1,141.2c0.6,3.5,38.2,90,41.1,96.4c-2.2-5-22.8-53.3-22.8-53.3l69.1-31.6c-1.5-16-5.6-31.3-11.8-45.4
		c-1-2.3-2.1-4.6-3.3-6.9l-71.2,35.5C226.2,136.1,224.5,137.6,225.1,141.2z"/>
	<path class="st17" d="M312.5,152.8l-69.1,31.6c0,0,20.5,48.3,22.8,53.3c0.1,0.2,0.1,0.3,0.2,0.4c2.7,5.5,9.7,4.1,16.7,1.2
		c2.1-0.9,7.9-3.8,15-7.4c9.7-19.6,15.2-41.7,15.2-65.1C313.2,162,313,157.4,312.5,152.8z"/>
	<path class="st3" d="M77.8,165.1c0,0,0,0,0,0.1c5.4-17.1,10.1-32.7,11.3-37.4c2.9-11.6-4.5-13.7-4.5-13.7L36.4,99.3
		c-7.8,14.9-13,31.4-15.2,48.8L77.8,165.1z"/>
	<path class="st4" d="M59.4,220.2c1.1-1.1,10.4-29.6,18.3-55c0-0.1,0-0.1,0-0.1L21.1,148c-0.8,6.1-1.2,12.4-1.2,18.7
		c0,16.5,2.7,32.3,7.7,47.1c8.5,2.9,18.1,6.1,21.8,7.3C56.8,223.6,57.6,221.9,59.4,220.2z"/>
	<path class="st20" d="M166.5,20c59.9,0,111.3,35.9,134.1,87.3c8,18.1,12.5,38.2,12.5,59.4c0,81-65.7,146.6-146.6,146.6
		c-49.9,0-93.9-24.9-120.4-63c-16.5-23.7-26.2-52.6-26.2-83.7C19.9,85.7,85.6,20,166.5,20 M166.5,0c-22.5,0-44.3,4.4-64.9,13.1
		c-19.8,8.4-37.7,20.4-53,35.7c-15.3,15.3-27.3,33.1-35.7,53c-8.7,20.6-13.1,42.4-13.1,64.9c0,34.2,10.3,67.1,29.8,95.1
		c31.2,44.8,82.3,71.5,136.8,71.5c22.5,0,44.3-4.4,64.9-13.1c19.8-8.4,37.7-20.4,53-35.7c15.3-15.3,27.3-33.1,35.7-53
		c8.7-20.6,13.1-42.4,13.1-64.9c0-23.5-4.8-46.2-14.2-67.5C292.3,38.9,232.4,0,166.5,0L166.5,0z"/>
</g>
<g id="hidden_costs">
</g>
<g id="times_to_suit">
</g>
<g id="how_it_works">
</g>
<g id="enquire_-_phone">
</g>
<g id="people">
</g>
<g id="calculator">
</g>
<g id="book">
</g>
<g id="book-phone">
</g>
<g id="book-online">
</g>
<g id="book-photo">
</g>
<g id="whyus">
</g>
<g id="we_clear">
</g>
<g id="enquire">
</g>
<g id="clear">
</g>
<g id="about_us">
</g>
<g id="slider_1">
</g>
<g id="slider_2">
</g>
<g id="slider_3">
</g>
<g id="how_it_works-header">
</g>
<g id="about_us-header">
</g>
<g id="accreditaions">
</g>
<g id="why_use_us-header">
</g>
<g id="order_collection-header">
</g>
<g id="price_calculator-header">
</g>
<g id="_x33_D-van">
</g>
<g id="prices-commercial">
</g>
<g id="prices-residential">
</g>
<g id="prices-hazardous">
</g>
<g id="desktop_slider_1">
</g>
<g id="desktop_slider_2">
</g>
<g id="desktop_slider_3">
</g>
</svg>
